<?xml version="1.0" standalone="no"?>
<!DOCTYPE svg PUBLIC "-//W3C//DTD SVG 20010904//EN"
 "http://www.w3.org/TR/2001/REC-SVG-20010904/DTD/svg10.dtd">
<svg version="1.0" xmlns="http://www.w3.org/2000/svg"
 width="524.000000pt" height="524.000000pt" viewBox="0 0 524.000000 524.000000"
 preserveAspectRatio="xMidYMid meet">
<metadata>
Created by potrace 1.14, written by Peter Selinger 2001-2017
</metadata>
<g transform="translate(0.000000,524.000000) scale(0.100000,-0.100000)"
fill="#000000" stroke="none">
<path d="M1790 5229 c-398 -32 -544 -49 -659 -80 -150 -39 -225 -80 -268 -143
-39 -57 -50 -95 -62 -212 -8 -76 -12 -91 -32 -104 -85 -56 -129 -130 -137
-229 -4 -49 -13 -80 -36 -121 -27 -48 -31 -65 -31 -130 0 -65 4 -82 31 -130
34 -60 100 -113 164 -130 44 -12 33 48 91 -497 l42 -401 -21 -51 c-27 -62 -29
-172 -6 -434 23 -273 80 -709 99 -753 9 -22 28 -51 42 -66 26 -28 27 -31 104
-760 43 -403 83 -750 89 -770 18 -63 71 -129 128 -161 49 -27 66 -31 185 -38
73 -4 632 -9 1242 -11 l1110 -3 55 31 c59 33 111 98 130 162 6 20 48 375 94
789 l83 751 36 31 c19 17 42 50 52 73 32 81 94 554 121 929 19 268 17 300 -30
356 l-23 28 43 386 c23 213 44 394 46 402 1 9 32 31 68 49 54 28 71 43 98 88
61 102 66 178 18 288 -13 31 -30 82 -37 112 -14 67 -49 138 -90 184 -25 29
-33 50 -44 123 -18 121 -30 161 -64 215 -61 97 -193 141 -591 198 -186 27
-1778 49 -2040 29z m2436 -996 c-3 -21 -15 -128 -26 -238 -26 -254 -79 -750
-85 -791 -5 -29 -9 -31 -78 -47 -39 -9 -151 -23 -247 -32 -96 -9 -283 -26
-415 -40 -342 -34 -448 -38 -830 -36 -316 2 -1367 50 -1380 63 -5 5 -61 524
-99 918 -9 91 -19 182 -22 203 l-6 37 1597 0 1597 0 -6 -37z m30 -1280 c-3
-32 -13 -150 -21 -263 -23 -304 -88 -780 -106 -780 -5 0 -74 -7 -152 -14 -497
-51 -1393 -103 -1587 -92 -63 3 -245 13 -405 21 -490 25 -831 49 -843 59 -1 2
-15 106 -32 232 -33 263 -56 493 -65 677 l-7 128 113 -6 c63 -3 281 -15 484
-26 832 -45 1272 -44 1760 6 132 13 323 32 424 41 105 10 237 29 305 44 67 15
125 28 129 29 5 0 6 -25 3 -56z m-311 -1300 c-4 -27 -39 -346 -79 -711 -40
-364 -76 -665 -79 -669 -8 -7 -2316 13 -2324 21 -3 3 -36 295 -74 648 -37 354
-70 663 -73 687 l-6 44 87 -6 c49 -4 311 -18 583 -33 463 -25 513 -26 765 -15
269 12 928 54 1080 70 138 14 127 18 120 -36z"/>
<path d="M2399 2746 c-95 -34 -144 -89 -170 -193 -11 -45 -10 -60 5 -117 27
-100 77 -160 227 -277 71 -55 147 -117 169 -138 l39 -37 53 47 c29 27 107 90
173 141 137 106 184 166 211 264 15 57 16 72 5 117 -21 83 -55 133 -113 167
-106 60 -180 49 -270 -41 l-58 -57 -57 57 c-77 76 -137 95 -214 67z"/>
</g>
</svg>
