<?xml version="1.0" standalone="no"?>
<!DOCTYPE svg PUBLIC "-//W3C//DTD SVG 20010904//EN"
 "http://www.w3.org/TR/2001/REC-SVG-20010904/DTD/svg10.dtd">
<svg version="1.0" xmlns="http://www.w3.org/2000/svg"
 width="264.000000pt" height="264.000000pt" viewBox="0 0 264.000000 264.000000"
 preserveAspectRatio="xMidYMid meet">
<metadata>
Created by potrace 1.14, written by Peter Selinger 2001-2017
</metadata>
<g transform="translate(0.000000,264.000000) scale(0.100000,-0.100000)"
fill="#000000" stroke="none">
<path d="M820 2624 c-313 -26 -397 -68 -414 -208 -5 -39 -14 -60 -33 -77 -33
-31 -53 -71 -53 -106 -1 -15 -7 -39 -15 -53 -34 -60 -7 -140 65 -188 l35 -23
23 -212 c18 -173 20 -219 11 -249 -25 -78 23 -559 61 -610 17 -23 26 -80 60
-397 39 -369 47 -407 86 -442 53 -46 47 -46 672 -52 484 -6 599 -4 625 7 38
15 94 76 102 109 3 12 23 187 45 390 35 317 43 370 60 387 26 26 36 69 59 250
32 255 37 364 16 409 -16 36 -15 47 5 232 11 107 25 196 31 197 21 8 71 56 84
83 19 35 19 68 1 116 -8 21 -17 49 -20 64 -3 14 -19 45 -36 70 -16 24 -30 55
-30 69 -1 86 -62 169 -139 190 -203 54 -891 78 -1301 44z m1300 -511 c0 -27
-17 -190 -41 -410 l-12 -102 -66 -10 c-287 -47 -713 -60 -1125 -37 -153 8
-281 18 -284 20 -5 6 -26 187 -42 369 -6 67 -13 139 -16 160 l-6 37 796 0 796
0 0 -27z m16 -660 c-3 -32 -8 -92 -11 -133 -6 -80 -19 -184 -36 -291 l-10 -66
-72 -7 c-480 -43 -738 -51 -1057 -32 -146 9 -288 19 -317 22 -48 6 -52 9 -57
38 -11 57 -36 290 -43 389 l-6 97 33 0 c17 0 159 -7 314 -16 342 -20 670 -14
946 15 107 11 213 24 235 30 22 5 51 9 63 10 23 1 24 -1 18 -56z m-156 -625
c0 -49 -72 -673 -78 -680 -4 -3 -267 -4 -584 -1 l-577 6 -5 26 c-10 53 -69
651 -65 656 3 2 127 -2 275 -11 282 -17 468 -14 779 11 248 19 255 19 255 -7z"/>
<path d="M1215 1382 c-38 -9 -64 -34 -81 -77 -30 -80 -1 -133 124 -232 l87
-69 92 72 c64 52 97 86 112 117 25 52 26 65 5 116 -31 79 -120 100 -177 43
l-31 -32 -31 29 c-31 30 -66 41 -100 33z"/>
</g>
</svg>
